<svg width="4491" height="1093" viewBox="0 0 4491 1093" fill="none" xmlns="http://www.w3.org/2000/svg">
<path d="M1486.38 431.873V547.733H1143.15V431.873H1486.38ZM1221.72 988V391.685C1221.72 351.375 1229.56 317.945 1245.25 291.394C1261.18 264.842 1282.91 244.929 1310.42 231.653C1337.94 218.378 1369.2 211.74 1404.2 211.74C1427.85 211.74 1449.45 213.55 1469.01 217.171C1488.8 220.792 1503.52 224.05 1513.18 226.947L1485.66 342.806C1479.63 340.875 1472.14 339.065 1463.21 337.375C1454.52 335.686 1445.59 334.841 1436.42 334.841C1413.73 334.841 1397.92 340.151 1388.99 350.772C1380.06 361.151 1375.59 375.754 1375.59 394.581V988H1221.72ZM1694.07 246.498V988H1539.83V246.498H1694.07ZM2030.28 998.862C1973.08 998.862 1923.83 987.276 1882.56 964.104C1841.53 940.691 1809.91 907.622 1787.7 864.899C1765.49 821.934 1754.39 771.125 1754.39 712.471C1754.39 655.265 1765.49 605.06 1787.7 561.854C1809.91 518.648 1841.16 484.976 1881.47 460.838C1922.02 436.701 1969.58 424.632 2024.13 424.632C2060.81 424.632 2094.97 430.546 2126.59 442.373C2158.45 453.959 2186.21 471.459 2209.86 494.872C2233.76 518.285 2252.35 547.733 2265.62 583.215C2278.9 618.456 2285.53 659.731 2285.53 707.04V749.401H1815.94V653.817H2140.35C2140.35 631.611 2135.52 611.939 2125.87 594.801C2116.21 577.664 2102.81 564.267 2085.68 554.612C2068.78 544.716 2049.11 539.768 2026.66 539.768C2003.25 539.768 1982.49 545.199 1964.39 556.061C1946.52 566.681 1932.52 581.043 1922.39 599.146C1912.25 617.008 1907.06 636.921 1906.82 658.886V749.763C1906.82 777.28 1911.89 801.056 1922.02 821.09C1932.4 841.124 1947.01 856.572 1965.83 867.434C1984.66 878.295 2006.99 883.726 2032.82 883.726C2049.95 883.726 2065.64 881.313 2079.88 876.485C2094.12 871.658 2106.31 864.416 2116.45 854.761C2126.59 845.106 2134.31 833.279 2139.62 819.279L2282.28 828.693C2275.03 862.968 2260.19 892.898 2237.74 918.484C2215.54 943.828 2186.81 963.621 2151.57 977.862C2116.57 991.862 2076.14 998.862 2030.28 998.862ZM2423.56 431.873L2525.66 626.301L2630.3 431.873H2788.52L2627.4 709.937L2792.86 988H2635.37L2525.66 795.745L2417.77 988H2258.46L2423.56 709.937L2264.25 431.873H2423.56ZM2801.45 988V246.498H2955.69V525.285H2960.4C2967.15 510.32 2976.93 495.114 2989.72 479.666C3002.76 463.976 3019.65 450.942 3040.41 440.563C3061.41 429.942 3087.48 424.632 3118.62 424.632C3159.17 424.632 3196.58 435.253 3230.86 456.494C3265.13 477.493 3292.53 509.234 3313.04 551.716C3333.56 593.956 3343.82 646.938 3343.82 710.661C3343.82 772.694 3333.8 825.072 3313.77 867.796C3293.97 910.277 3266.94 942.501 3232.67 964.466C3198.63 986.19 3160.49 997.052 3118.25 997.052C3088.32 997.052 3062.86 992.103 3041.86 982.207C3021.1 972.311 3004.08 959.88 2990.81 944.915C2977.53 929.708 2967.4 914.381 2960.4 898.933H2953.52V988H2801.45ZM2952.43 709.937C2952.43 743.005 2957.02 771.849 2966.19 796.469C2975.36 821.09 2988.64 840.279 3006.02 854.037C3023.39 867.554 3044.51 874.313 3069.38 874.313C3094.48 874.313 3115.72 867.434 3133.1 853.675C3150.48 839.675 3163.63 820.366 3172.56 795.745C3181.74 770.884 3186.32 742.281 3186.32 709.937C3186.32 677.834 3181.86 649.593 3172.93 625.214C3163.99 600.836 3150.84 581.767 3133.46 568.009C3116.08 554.25 3094.72 547.371 3069.38 547.371C3044.27 547.371 3023.03 554.009 3005.65 567.284C2988.52 580.56 2975.36 599.387 2966.19 623.766C2957.02 648.145 2952.43 676.868 2952.43 709.937ZM3616.44 998.862C3560.2 998.862 3511.56 986.914 3470.53 963.018C3429.74 938.88 3398.24 905.329 3376.03 862.365C3353.82 819.159 3342.72 769.073 3342.72 712.109C3342.72 654.662 3353.82 604.456 3376.03 561.491C3398.24 518.285 3429.74 484.734 3470.53 460.838C3511.56 436.701 3560.2 424.632 3616.44 424.632C3672.68 424.632 3721.2 436.701 3761.99 460.838C3803.02 484.734 3834.64 518.285 3856.85 561.491C3879.06 604.456 3890.16 654.662 3890.16 712.109C3890.16 769.073 3879.06 819.159 3856.85 862.365C3834.64 905.329 3803.02 938.88 3761.99 963.018C3721.2 986.914 3672.68 998.862 3616.44 998.862ZM3617.16 879.382C3642.75 879.382 3664.11 872.14 3681.25 857.658C3698.39 842.934 3711.3 822.9 3719.99 797.556C3728.92 772.211 3733.39 743.367 3733.39 711.023C3733.39 678.679 3728.92 649.835 3719.99 624.49C3711.3 599.146 3698.39 579.112 3681.25 564.388C3664.11 549.664 3642.75 542.302 3617.16 542.302C3591.34 542.302 3569.61 549.664 3551.99 564.388C3534.61 579.112 3521.46 599.146 3512.53 624.49C3503.84 649.835 3499.49 678.679 3499.49 711.023C3499.49 743.367 3503.84 772.211 3512.53 797.556C3521.46 822.9 3534.61 842.934 3551.99 857.658C3569.61 872.14 3591.34 879.382 3617.16 879.382ZM4017.86 431.873L4119.97 626.301L4224.6 431.873H4382.82L4221.71 709.937L4387.17 988H4229.67L4119.97 795.745L4012.07 988H3852.76L4017.86 709.937L3858.56 431.873H4017.86Z" fill="white"/>
<path d="M446.373 888.761V974.399L124.745 801.341L199.35 755.846L378.446 852.212L446.373 888.761ZM180.497 724.511L106.284 769.767V384.851L446.373 181.528V268.555L189.633 416.932C183.979 420.199 180.497 426.233 180.497 432.763V724.511ZM482.941 268.036V179.895L804.282 352.798L729.937 397.245L482.941 268.036ZM465.096 299.971L693.121 419.256L455.275 561.453C449.753 564.754 446.373 570.714 446.373 577.147V847.235L395.774 820.009L217.066 723.852V443.314L465.096 299.971Z" stroke="white" stroke-width="36.5687" stroke-linejoin="round"/>
<path d="M735.101 601.058L863.693 524.819C877.023 516.916 885.197 502.569 885.197 487.072V351.961C885.197 335.812 876.328 320.969 862.107 313.317L485.45 110.65C471.847 103.331 455.398 103.702 442.139 111.629L65.4822 336.815C52.2308 344.737 44.1176 359.04 44.1176 374.479V802.333C44.1176 818.481 52.9866 833.325 67.2071 840.976L443.864 1043.64C457.588 1051.03 474.199 1050.58 487.504 1042.47L598.286 974.91C611.35 966.943 619.321 952.746 619.321 937.444V872.63L752.571 795.242C766.094 787.389 774.415 772.933 774.415 757.295V644.703C774.415 629.005 766.03 614.503 752.425 606.671C747.016 603.557 741.108 601.686 735.101 601.058Z" stroke="white" stroke-width="87.7648" stroke-linejoin="round"/>
<line x1="413.461" y1="1005" x2="413.461" y2="522.294" stroke="white" stroke-width="109.706" stroke-linejoin="round"/>
<line x1="382.985" y1="569.523" x2="835.256" y2="316.033" stroke="white" stroke-width="109.706" stroke-linejoin="round"/>
</svg>
