<svg width="1234" height="301" viewBox="0 0 1234 301" fill="none" xmlns="http://www.w3.org/2000/svg">
<path d="M409.034 118.273V150.091H314.773V118.273H409.034ZM336.349 271V107.236C336.349 96.1657 338.504 86.9848 342.812 79.6932C347.188 72.4015 353.153 66.9328 360.71 63.2869C368.267 59.6411 376.851 57.8182 386.463 57.8182C392.959 57.8182 398.892 58.3153 404.261 59.3097C409.697 60.304 413.741 61.1989 416.392 61.9943L408.835 93.8125C407.178 93.2822 405.123 92.785 402.67 92.321C400.284 91.857 397.831 91.625 395.312 91.625C389.081 91.625 384.74 93.0833 382.287 96C379.834 98.8504 378.608 102.861 378.608 108.031V271H336.349ZM466.069 67.3636V271H423.711V67.3636H466.069ZM558.403 273.983C542.692 273.983 529.17 270.801 517.834 264.438C506.565 258.008 497.882 248.926 491.783 237.193C485.685 225.394 482.636 211.44 482.636 195.332C482.636 179.622 485.685 165.834 491.783 153.969C497.882 142.103 506.466 132.856 517.536 126.227C528.672 119.598 541.731 116.284 556.712 116.284C566.788 116.284 576.168 117.908 584.851 121.156C593.601 124.338 601.225 129.144 607.721 135.574C614.283 142.004 619.387 150.091 623.033 159.835C626.679 169.513 628.502 180.848 628.502 193.841V205.474H499.539V179.224H588.63C588.63 173.126 587.304 167.723 584.653 163.017C582.001 158.311 578.322 154.632 573.616 151.98C568.975 149.262 563.573 147.903 557.408 147.903C550.978 147.903 545.278 149.395 540.306 152.378C535.401 155.295 531.556 159.239 528.772 164.21C525.988 169.116 524.563 174.584 524.496 180.616V205.574C524.496 213.131 525.888 219.66 528.672 225.162C531.523 230.664 535.533 234.906 540.704 237.889C545.874 240.872 552.006 242.364 559.099 242.364C563.805 242.364 568.114 241.701 572.025 240.375C575.936 239.049 579.283 237.061 582.067 234.409C584.851 231.758 586.973 228.509 588.431 224.665L627.607 227.25C625.618 236.663 621.542 244.883 615.377 251.909C609.279 258.869 601.39 264.305 591.712 268.216C582.1 272.061 570.997 273.983 558.403 273.983ZM666.407 118.273L694.447 171.668L723.183 118.273H766.635L722.388 194.636L767.828 271H724.575L694.447 218.202L664.816 271H621.066L666.407 194.636L622.657 118.273H666.407ZM770.186 271V67.3636H812.544V143.926H813.837C815.693 139.816 818.378 135.64 821.891 131.398C825.47 127.089 830.111 123.509 835.811 120.659C841.578 117.742 848.737 116.284 857.289 116.284C868.425 116.284 878.7 119.201 888.112 125.034C897.525 130.801 905.049 139.518 910.684 151.185C916.318 162.785 919.135 177.335 919.135 194.835C919.135 211.871 916.384 226.256 910.882 237.989C905.447 249.655 898.023 258.505 888.61 264.537C879.263 270.503 868.79 273.486 857.189 273.486C848.969 273.486 841.976 272.127 836.209 269.409C830.508 266.691 825.835 263.277 822.189 259.168C818.543 254.991 815.759 250.782 813.837 246.54H811.948V271H770.186ZM811.649 194.636C811.649 203.718 812.909 211.639 815.428 218.401C817.947 225.162 821.593 230.432 826.365 234.21C831.138 237.922 836.938 239.778 843.766 239.778C850.66 239.778 856.493 237.889 861.266 234.111C866.039 230.266 869.651 224.963 872.104 218.202C874.623 211.374 875.882 203.519 875.882 194.636C875.882 185.82 874.656 178.064 872.203 171.369C869.751 164.674 866.138 159.437 861.365 155.659C856.593 151.881 850.726 149.991 843.766 149.991C836.872 149.991 831.039 151.814 826.266 155.46C821.559 159.106 817.947 164.277 815.428 170.972C812.909 177.667 811.649 185.555 811.649 194.636ZM994.004 273.983C978.559 273.983 965.202 270.702 953.933 264.139C942.731 257.51 934.08 248.296 927.982 236.497C921.883 224.632 918.834 210.877 918.834 195.233C918.834 179.456 921.883 165.669 927.982 153.869C934.08 142.004 942.731 132.79 953.933 126.227C965.202 119.598 978.559 116.284 994.004 116.284C1009.45 116.284 1022.77 119.598 1033.98 126.227C1045.24 132.79 1053.93 142.004 1060.03 153.869C1066.13 165.669 1069.17 179.456 1069.17 195.233C1069.17 210.877 1066.13 224.632 1060.03 236.497C1053.93 248.296 1045.24 257.51 1033.98 264.139C1022.77 270.702 1009.45 273.983 994.004 273.983ZM994.203 241.17C1001.23 241.17 1007.1 239.182 1011.8 235.205C1016.51 231.161 1020.06 225.659 1022.44 218.699C1024.89 211.739 1026.12 203.817 1026.12 194.935C1026.12 186.052 1024.89 178.131 1022.44 171.17C1020.06 164.21 1016.51 158.708 1011.8 154.665C1007.1 150.621 1001.23 148.599 994.203 148.599C987.11 148.599 981.145 150.621 976.306 154.665C971.533 158.708 967.92 164.21 965.467 171.17C963.081 178.131 961.888 186.052 961.888 194.935C961.888 203.817 963.081 211.739 965.467 218.699C967.92 225.659 971.533 231.161 976.306 235.205C981.145 239.182 987.11 241.17 994.203 241.17ZM1104.25 118.273L1132.29 171.668L1161.02 118.273H1204.47L1160.23 194.636L1205.67 271H1162.41L1132.29 218.202L1102.66 271H1058.91L1104.25 194.636L1060.5 118.273H1104.25Z" fill="white"/>
<path d="M123.419 244.078V267.596L35.0912 220.07L55.5798 207.576L104.764 234.04L123.419 244.078ZM50.4022 198.97L30.0214 211.399V105.69L123.419 49.8524V73.7525L52.911 114.501C51.3585 115.398 50.4022 117.055 50.4022 118.848V198.97ZM133.462 73.61V49.404L221.71 96.8878L201.293 109.094L133.462 73.61ZM128.561 82.3801L191.182 115.139L125.864 154.19C124.347 155.097 123.419 156.733 123.419 158.5V232.673L109.523 225.197L60.445 198.789V121.746L128.561 82.3801Z" stroke="white" stroke-width="10.0427" stroke-linejoin="round"/>
<path d="M202.711 165.067L238.026 144.13C241.687 141.959 243.932 138.019 243.932 133.763V96.6579C243.932 92.2231 241.496 88.1467 237.591 86.0453L134.15 30.3875C130.415 28.3774 125.897 28.4795 122.256 30.6563L18.816 92.4984C15.1768 94.6741 12.9487 98.6021 12.9487 102.842V220.342C12.9487 224.777 15.3844 228.853 19.2897 230.955L122.73 286.613C126.499 288.64 131.061 288.517 134.715 286.289L165.138 267.736C168.726 265.549 170.915 261.65 170.915 257.447V239.648L207.509 218.395C211.223 216.238 213.508 212.268 213.508 207.974V177.053C213.508 172.742 211.205 168.759 207.469 166.608C205.983 165.753 204.361 165.239 202.711 165.067Z" stroke="white" stroke-width="24.1026" stroke-linejoin="round"/>
<line x1="114.38" y1="276" x2="114.38" y2="143.436" stroke="white" stroke-width="30.1282" stroke-linejoin="round"/>
<line x1="106.011" y1="156.406" x2="230.217" y2="86.7911" stroke="white" stroke-width="30.1282" stroke-linejoin="round"/>
</svg>
